#!OML:ASF I:\golf\golf\golf 2\Subject 1\2002-09-07\Subject1.ASF
:FULLY-SPECIFIED
:DEGREES
220
root 2.03457 12.7667 -2.74758 18.3119 -2.83238 -1.38893
lowerback 35.0434 7.86944 2.29375
upperback 16.7571 10.398 6.49063
thorax 0.0440006 4.85803 2.38889
lowerneck -13.2106 -6.39662 -2.66787
upperneck 26.3299 -4.82047 -12.0926
head 10.3997 -3.69975 -4.45692
rclavicle -4.13472e-014 -7.95139e-016
rhumerus 29.3152 -3.95538 -73.6761
rradius 23.7426
rwrist -4.75078
rhand -43.4067 25.409
rfingers 7.12502
rthumb -16.25 -3.92999
lclavicle -4.13472e-014 -7.95139e-016
lhumerus -28.5071 -40.0754 95.6155
lradius 91.5249
lwrist -19.0276
lhand -44.0352 25.4667
lfingers 7.12502
lthumb -16.855 54.7552
rfemur -86.1738 -43.8549 38.8321
rtibia 113.578
rfoot -27.3264 2.1473
rtoes -17.9652
lfemur -86.4651 12.2418 -24.2532
ltibia 99.7161
lfoot -27.5995 -15.1066
ltoes -4.25899
221
root 2.05441 12.6561 -2.71619 18.0648 -3.00972 -1.39826
lowerback 35.3141 7.8847 2.50413
upperback 16.8191 10.4717 6.47027
thorax 0.0576038 4.90312 2.22582
lowerneck -13.1154 -6.48681 -2.56801
upperneck 26.416 -4.97743 -12.0592
head 10.3979 -3.75555 -4.47894
rclavicle 0 3.49861e-014
rhumerus 29.2584 -3.94066 -73.5036
rradius 23.6732
rwrist -4.52655
rhand -43.7554 25.788
rfingers 7.12502
rthumb -16.5857 -3.52326
lclavicle 0 3.49861e-014
lhumerus -28.7149 -40.3626 95.5666
lradius 91.6653
lwrist -19.9485
lhand -44.7323 25.8875
lfingers 7.12502
lthumb -17.526 55.1175
rfemur -86.6192 -44.5255 38.6353
rtibia 114.677
rfoot -27.3679 2.9579
rtoes -17.2006
lfemur -86.938 12.4961 -24.4473
ltibia 100.956
lfoot -27.6321 -15.1323
ltoes -4.18977
222
root 2.07251 12.5712 -2.67387 17.4385 -3.66884 -1.45287
lowerback 36.0358 8.12164 2.46958
upperback 16.9572 10.7336 6.4171
thorax -0.0320171 5.01821 2.05808
lowerneck -13.095 -6.55856 -2.43413
upperneck 26.5042 -5.08775 -12.1208
head 10.4105 -3.7995 -4.53937
rclavicle -5.725e-014 -2.38542e-015
rhumerus 29.1414 -3.85237 -73.3306
rradius 23.7955
rwrist -4.48579
rhand -44.1116 26.5545
rfingers 7.12502
rthumb -16.9287 -2.72777
lclavicle -5.725e-014 -2.38542e-015
lhumerus -28.9596 -40.4837 95.4892
lradius 92.0215
lwrist -20.348
lhand -45.0482 25.8108
lfingers 7.12502
lthumb -17.83 55.0134
rfemur -86.0442 -44.9267 37.8026
rtibia 115.582
rfoot -27.5823 3.66516
rtoes -16.783
lfemur -86.6652 13.3063 -24.5581
ltibia 102.082
lfoot -27.999 -15.2319
ltoes -3.86786
223
root 2.08147 12.4613 -2.66221 17.3663 -3.57774 -1.48729
lowerback 36.3451 8.05811 2.64796
upperback 16.9072 10.7202 6.43462
thorax -0.161571 5.01488 1.9624
lowerneck -13.1207 -6.60457 -2.22309
upperneck 26.5535 -5.16259 -12.2632
head 10.4137 -3.83004 -4.63744
rclavicle -4.45278e-014 2.70347e-014
rhumerus 29.1092 -3.90554 -73.3065
rradius 23.8642
rwrist -4.12157
rhand -44.3852 26.5558
rfingers 7.12502
rthumb -17.192 -2.70367
lclavicle -4.45278e-014 2.70347e-014
lhumerus -29.2218 -40.4293 95.4548
lradius 92.3523
lwrist -20.6634
lhand -45.5044 25.7012
lfingers 7.12502
lthumb -18.2689 54.8633
rfemur -86.9149 -45.5827 38.0832
rtibia 116.667
rfoot -27.5938 3.89385
rtoes -17.1345
lfemur -87.4062 13.2958 -24.5593
ltibia 103.264
lfoot -27.8002 -15.5892
ltoes -2.83509
224
root 2.08982 12.3553 -2.6506 17.3143 -3.51816 -1.61074
lowerback 36.3106 7.93321 2.95501
upperback 16.928 10.6594 6.44826
thorax -0.0772261 5.00319 1.85255
lowerneck -12.368 -6.65371 -2.20618
upperneck 26.2092 -5.32384 -12.2053
head 10.1288 -3.87 -4.5757
rclavicle 5.08889e-014 2.46493e-014
rhumerus 29.1251 -4.1094 -73.5016
rradius 23.754
rwrist -3.52752
rhand -44.7082 26.478
rfingers 7.12502
rthumb -17.5028 -2.75408
lclavicle 5.08889e-014 2.46493e-014
lhumerus -29.5695 -40.3165 95.4582
lradius 92.628
lwrist -21.0689
lhand -46.0568 25.7282
lfingers 7.12502
lthumb -18.8003 54.8397
rfemur -87.7587 -46.1399 38.4745
rtibia 117.721
rfoot -27.5354 4.06285
rtoes -17.492
lfemur -88.2159 13.3754 -24.4991
ltibia 104.46
lfoot -27.591 -15.8687
ltoes -2.3604
225
root 2.0987 12.2546 -2.63723 17.1811 -3.52559 -1.75606
lowerback 36.5212 7.93252 3.18946
upperback 16.9395 10.7337 6.50441
thorax -0.106425 5.04563 1.75626
lowerneck -12.0903 -6.72779 -2.07176
upperneck 26.1713 -5.48533 -12.1736
head 10.0434 -3.91877 -4.58604
rclavicle -4.45278e-014 6.44062e-014
rhumerus 29.1911 -4.60258 -73.7643
rradius 23.6625
rwrist -3.09641
rhand -44.832 26.7635
rfingers 7.12502
rthumb -17.622 -2.4579
lclavicle -4.45278e-014 6.44062e-014
lhumerus -29.7702 -40.3752 95.4202
lradius 92.9226
lwrist -21.1415
lhand -46.4423 25.3395
lfingers 7.12502
lthumb -19.1711 54.4147
rfemur -88.4638 -46.744 38.8451
rtibia 118.719
rfoot -27.5435 4.27687
rtoes -17.8089
lfemur -88.8564 13.5398 -24.4253
ltibia 105.615
lfoot -27.6315 -15.8975
ltoes -3.0858
226
root 2.10702 12.1553 -2.61869 16.9257 -3.6084 -1.79918
lowerback 36.8265 8.00354 3.30462
upperback 16.9803 10.8591 6.55647
thorax -0.153634 5.1056 1.69214
lowerneck -11.9719 -6.82231 -1.90418
upperneck 26.2694 -5.66378 -12.1308
head 10.0357 -3.97677 -4.61598
rclavicle -1.08139e-013 -2.46493e-014
rhumerus 29.204 -4.88708 -73.754
rradius 23.6
rwrist -3.3372
rhand -44.7649 27.393
rfingers 7.12502
rthumb -17.5574 -1.8342
lclavicle -1.08139e-013 -2.46493e-014
lhumerus -29.9279 -40.4885 95.403
lradius 93.2455
lwrist -21.0706
lhand -46.9259 24.88
lfingers 7.12502
lthumb -19.636 53.9083
rfemur -88.9709 -47.4489 38.9457
rtibia 119.702
rfoot -27.6372 4.697
rtoes -17.5723
lfemur -89.2891 13.7276 -24.4262
ltibia 106.733
lfoot -27.7242 -15.9332
ltoes -4.00143
227
root 2.11594 12.0564 -2.59836 16.6951 -3.67944 -1.77016
lowerback 37.1606 8.01039 3.37313
upperback 16.9918 10.8943 6.55852
thorax -0.237117 5.12058 1.62348
lowerneck -11.8461 -6.88704 -1.80408
upperneck 26.3076 -5.78888 -12.096
head 10.012 -4.01724 -4.6282
rclavicle 5.08889e-014 2.38542e-014
rhumerus 29.1549 -4.25035 -73.1474
rradius 23.4535
rwrist -4.48761
rhand -44.7754 28.1497
rfingers 7.12502
rthumb -17.5675 -1.07661
lclavicle 5.08889e-014 2.38542e-014
lhumerus -30.2027 -40.4943 95.3626
lradius 93.7947
lwrist -20.9096
lhand -47.2211 24.8386
lfingers 7.12502
lthumb -19.9198 53.8377
rfemur -89.5121 -48.1362 38.9511
rtibia 120.706
rfoot -27.6789 5.19826
rtoes -16.9883
lfemur -89.7573 13.8306 -24.4917
ltibia 107.806
lfoot -27.7443 -15.873
ltoes -4.88845
228
root 2.12671 11.9642 -2.58007 16.5149 -3.67791 -1.85892
lowerback 37.532 7.89591 3.55119
upperback 16.9791 10.8193 6.53794
thorax -0.332787 5.0871 1.51014
lowerneck -11.7739 -6.88857 -1.71333
upperneck 26.314 -5.81008 -12.1195
head 9.99285 -4.01942 -4.64982
rclavicle 3.18055e-015 -2.54444e-014
rhumerus 29.1496 -2.99755 -72.2406
rradius 23.2895
rwrist -5.60732
rhand -44.9512 28.2747
rfingers 7.12502
rthumb -17.7367 -0.93637
lclavicle 3.18055e-015 -2.54444e-014
lhumerus -30.5483 -40.422 95.306
lradius 94.2681
lwrist -21.2635
lhand -47.3412 25.4018
lfingers 7.12502
lthumb -20.0353 54.3889
rfemur -90.0353 -48.7562 39.1258
rtibia 121.608
rfoot -27.4901 5.74463
rtoes -15.4732
lfemur -90.2536 13.8803 -24.4039
ltibia 108.834
lfoot -27.7647 -15.8629
ltoes -5.4633
229
root 2.13678 11.8773 -2.5629 16.2555 -3.74037 -2.01827
lowerback 37.9569 7.81805 3.72203
upperback 17.0052 10.785 6.53551
thorax -0.406844 5.07103 1.40601
lowerneck -11.7911 -6.8739 -1.55062
upperneck 26.358 -5.80519 -12.1944
head 10.0009 -4.01141 -4.70583
rclavicle -6.99722e-014 -7.95139e-015
rhumerus 29.213 -2.55088 -71.9961
rradius 23.2151
rwrist -5.492
rhand -45.0835 28.1519
rfingers 7.12502
rthumb -17.864 -1.04761
lclavicle -6.99722e-014 -7.95139e-015
lhumerus -30.8716 -40.5291 95.2975
lradius 94.2593
lwrist -23.0008
lhand -47.6468 27.1501
lfingers 7.12502
lthumb -20.3289 56.1061
rfemur -90.3337 -49.3524 39.2533
rtibia 122.404
rfoot -27.2938 6.35665
rtoes -13.382
lfemur -90.6175 14.0817 -24.2482
ltibia 109.827
lfoot -27.7583 -16.0803
ltoes -5.65166
230
root 2.14449 11.7917 -2.54363 15.9821 -3.91819 -2.1166
lowerback 38.3273 7.8649 3.75978
upperback 17.0566 10.8552 6.54994
thorax -0.461835 5.09876 1.35585
lowerneck -11.7395 -6.88607 -1.37191
upperneck 26.3499 -5.85545 -12.2437
head 9.97278 -4.02157 -4.75391
rclavicle -2.22639e-014 -2.78299e-014
rhumerus 29.2287 -2.80049 -72.1947
rradius 23.2548
rwrist -4.72362
rhand -45.071 28.1354
rfingers 7.12502
rthumb -17.852 -1.06518
lclavicle -2.22639e-014 -2.78299e-014
lhumerus -31.0843 -40.6668 95.248
lradius 94.6042
lwrist -22.8057
lhand -48.0105 27.1137
lfingers 7.12502
lthumb -20.6785 56.0321
rfemur -90.6091 -49.9252 39.2784
rtibia 123.2
rfoot -27.4286 6.59193
rtoes -13.5267
lfemur -90.9462 14.3996 -24.1818
ltibia 110.791
lfoot -27.7333 -16.3071
ltoes -5.84645
